<svg width="35" height="35" fill="none" xmlns="http://www.w3.org/2000/svg">
  <path d="M7.68 14.24a10.32 10.32 0 0 1 9.82-7.08c2.466 0 4.694.874 6.444 2.306l5.09-5.091C25.932 1.67 21.954 0 17.5 0A17.454 17.454 0 0 0 1.81 9.698L7.68 14.24z" fill="#EA4335"/>
  <path d="M23.393 26.269c-1.59 1.026-3.61 1.572-5.893 1.572a10.32 10.32 0 0 1-9.804-7.033L1.805 25.28A17.449 17.449 0 0 0 17.5 35c4.277 0 8.364-1.521 11.425-4.376l-5.532-4.356z" fill="#34A853"/>
  <path d="M28.925 30.625c3.2-2.986 5.28-7.432 5.28-13.125 0-1.034-.16-2.148-.398-3.182H17.5v6.762h9.386c-.463 2.273-1.706 4.034-3.493 5.189l5.532 4.356z" fill="#4A90E2"/>
  <path d="M7.696 20.808a10.382 10.382 0 0 1-.537-3.308c0-1.14.183-2.236.52-3.26L1.81 9.698C.636 12.047 0 14.694 0 17.5c0 2.8.649 5.44 1.805 7.78l5.89-4.472z" fill="#FBBC05"/>
</svg>
