<svg width="35" height="35" fill="none" xmlns="http://www.w3.org/2000/svg">
  <path d="M17.47 0C8.283 0 .746 7.086.034 16.093l9.377 3.88a4.945 4.945 0 0 1 2.791-.86c.091 0 .183.006.274.006l4.17-6.039v-.085a6.6 6.6 0 0 1 6.596-6.597A6.61 6.61 0 0 1 29.843 13c0 3.64-2.962 6.597-6.602 6.597h-.147l-5.948 4.243c0 .08.005.155.005.235 0 2.734-2.21 4.95-4.944 4.95-2.381 0-4.398-1.71-4.86-3.976l-6.71-2.78C2.717 29.618 9.456 35 17.471 35c9.661 0 17.494-7.832 17.494-17.5S27.133.001 17.471.001V0zm-6.476 26.557l-2.148-.889a3.733 3.733 0 0 0 1.92 1.823 3.723 3.723 0 0 0 4.859-2.004 3.696 3.696 0 0 0 .005-2.843 3.676 3.676 0 0 0-2.011-2.017 3.696 3.696 0 0 0-2.735-.046l2.216.918a2.744 2.744 0 0 1 1.476 3.583 2.742 2.742 0 0 1-3.583 1.475zM27.64 12.988a4.403 4.403 0 0 0-4.393-4.398 4.397 4.397 0 1 0 0 8.796 4.4 4.4 0 0 0 4.393-4.398zm-7.685-.005a3.298 3.298 0 0 1 3.299-3.304 3.307 3.307 0 0 1 3.31 3.304 3.31 3.31 0 0 1-3.31 3.304 3.302 3.302 0 0 1-3.3-3.304z" fill="#000"/>
</svg>
