<svg width="129" height="27" viewBox="0 0 129 27" fill="none" xmlns="http://www.w3.org/2000/svg">
<g clip-path="url(#clip0_403_187)">
<path fill-rule="evenodd" clip-rule="evenodd" d="M10.1342 26.4367C17.2941 28.2272 24.5449 23.8576 26.3298 16.6776C28.1146 9.49722 23.7582 2.22385 16.5987 0.433783C9.441 -1.35629 2.19012 3.01376 0.406117 10.1946C-1.37956 17.3741 2.97731 24.6466 10.1342 26.4367ZM16.321 8.14422C18.1723 8.78377 19.5261 9.74247 19.2601 11.5258C19.0676 12.8313 18.346 13.4633 17.388 13.6849C18.7035 14.3718 19.3729 15.4251 18.7352 17.2512C17.9438 19.5192 16.0638 19.7106 13.5636 19.236L12.9568 21.6749L11.4906 21.3084L12.0894 18.9022C11.7094 18.8076 11.3211 18.7071 10.921 18.5982L10.3201 21.0156L8.85552 20.6492L9.46229 18.2057C9.32547 18.1706 9.18778 18.1346 9.04911 18.0983C8.84074 18.0438 8.63016 17.9887 8.41703 17.9352L6.50899 17.4581L7.23688 15.7748C7.23688 15.7748 8.31723 16.063 8.30261 16.0416C8.71771 16.1447 8.90186 15.8733 8.97453 15.6923L9.93336 11.837C9.9693 11.8457 10.0045 11.8545 10.0385 11.8631C10.0554 11.8673 10.072 11.8715 10.0883 11.8756C10.0298 11.8521 9.97678 11.837 9.93585 11.8266L10.6199 9.07443C10.6378 8.76198 10.5305 8.36787 9.9367 8.21918C9.95966 8.20369 8.87181 7.95365 8.87181 7.95365L9.26185 6.38304L11.2839 6.88941L11.2822 6.89695C11.5862 6.97276 11.8994 7.04479 12.2185 7.11766L12.8194 4.70271L14.2848 5.06918L13.696 7.43682C14.0893 7.52687 14.4852 7.61775 14.8707 7.71408L15.4553 5.36194L16.9215 5.72842L16.321 8.14422ZM11.6833 16.903C12.8797 17.2199 15.4944 17.9126 15.9101 16.2372C16.3361 14.5242 13.8002 13.9535 12.5628 13.6751C12.4246 13.644 12.3025 13.6165 12.2026 13.5915L11.3975 16.8286C11.4795 16.849 11.5757 16.8745 11.6833 16.903ZM12.8115 12.1728C13.8089 12.4398 15.9846 13.0221 16.3636 11.4994C16.7506 9.94196 14.636 9.47246 13.6033 9.24317C13.4871 9.21738 13.3846 9.19462 13.3009 9.1737L12.5709 12.1097C12.6399 12.1269 12.7208 12.1486 12.8115 12.1728Z" fill="white"/>
<path d="M39.1676 8.14177C40.2513 8.14177 41.1875 8.33652 41.9743 8.71891C42.7648 9.10507 43.4171 9.62526 43.9404 10.2795C44.4565 10.937 44.8407 11.7056 45.0888 12.5864C45.3352 13.4697 45.4588 14.4192 45.4588 15.4357C45.4588 16.9971 45.1736 18.4722 44.5977 19.8627C44.0218 21.2553 43.2405 22.4632 42.2466 23.4935C41.2535 24.5225 40.0809 25.3338 38.7287 25.9332C37.3786 26.5329 35.9107 26.8328 34.3346 26.8328C34.1308 26.8328 33.7725 26.8269 33.2664 26.8165C32.7603 26.806 32.1785 26.7536 31.5271 26.6653C30.8714 26.5735 30.1782 26.4378 29.4462 26.2561C28.7145 26.0777 28.0196 25.8276 27.3652 25.5101L33.2167 0.851244L38.4576 0.0366211L36.3625 8.78719C36.811 8.58448 37.2629 8.42741 37.7139 8.31307C38.1653 8.20041 38.6497 8.14177 39.1676 8.14177ZM34.7714 22.663C35.5607 22.663 36.3045 22.4682 37.0031 22.0858C37.7039 21.703 38.3086 21.1862 38.8151 20.5424C39.3217 19.8958 39.7226 19.1674 40.0149 18.3536C40.3072 17.5399 40.4551 16.6909 40.4551 15.8076C40.4551 14.7224 40.2742 13.876 39.9138 13.264C39.5534 12.6546 38.8865 12.3481 37.9181 12.3481C37.6007 12.3481 37.1919 12.4088 36.6849 12.5173C36.1763 12.6324 35.7211 12.8716 35.3131 13.2314L33.0822 22.5243C33.2167 22.5482 33.3357 22.5708 33.4372 22.5922C33.5366 22.6152 33.6464 22.6315 33.7558 22.6429C33.8715 22.6558 34.0039 22.6625 34.1638 22.6625C34.3238 22.6625 34.5238 22.663 34.7714 22.663Z" fill="white"/>
<path d="M50.8925 26.3607H45.8867L50.1141 8.51994H55.1542L50.8925 26.3607ZM53.3284 6.34623C52.6298 6.34623 51.9963 6.13765 51.4342 5.71966C50.8675 5.30418 50.5869 4.66463 50.5869 3.80269C50.5869 3.32857 50.6829 2.88377 50.8733 2.46411C51.0667 2.04528 51.3193 1.68467 51.6359 1.37809C51.952 1.07402 52.3182 0.831097 52.7342 0.648069C53.1526 0.467973 53.5978 0.37793 54.0722 0.37793C54.7704 0.37793 55.4006 0.586507 55.9648 1.0045C56.5269 1.42458 56.8096 2.06413 56.8096 2.92147C56.8096 3.39726 56.714 3.84373 56.5219 4.26256C56.331 4.68138 56.0784 5.04199 55.7618 5.34857C55.4482 5.65306 55.0786 5.89514 54.6635 6.0765C54.2447 6.25952 53.8012 6.34623 53.3284 6.34623Z" fill="white"/>
<path d="M59.5428 4.07488L64.7858 3.26025L63.4983 8.51906H69.1134L68.0995 12.6562H62.5182L61.0315 18.8968C60.8945 19.417 60.8169 19.9028 60.7952 20.3543C60.7705 20.8079 60.8277 21.1974 60.963 21.5253C61.0975 21.8541 61.3393 22.1075 61.6901 22.2868C62.0392 22.469 62.5391 22.5607 63.1947 22.5607C63.7347 22.5607 64.2609 22.5092 64.7695 22.407C65.2752 22.3064 65.7876 22.1666 66.3063 21.9835L66.6796 25.8518C66.0031 26.1006 65.2706 26.3146 64.4814 26.4947C63.6908 26.6773 62.755 26.7653 61.6734 26.7653C60.1182 26.7653 58.9126 26.5337 58.0536 26.0726C57.1958 25.6081 56.5895 24.9736 56.2266 24.1702C55.8687 23.3699 55.7087 22.4472 55.7534 21.4076C55.7998 20.3656 55.9564 19.2704 56.2266 18.1169L59.5428 4.07488Z" fill="white"/>
<path d="M68.8926 19.2367C68.8926 17.7 69.1406 16.2509 69.6363 14.8943C70.1312 13.5365 70.844 12.3491 71.769 11.3301C72.6907 10.3161 73.8136 9.51277 75.1354 8.92306C76.4508 8.3367 77.9237 8.04102 79.5469 8.04102C80.563 8.04102 81.4704 8.13735 82.2689 8.33043C83.0707 8.52518 83.7961 8.7769 84.4521 9.0927L82.7257 13.0297C82.2747 12.8462 81.8066 12.6846 81.3226 12.538C80.8382 12.3884 80.2468 12.3164 79.5473 12.3164C77.8765 12.3164 76.5556 12.894 75.5726 14.0453C74.5933 15.1975 74.1001 16.7484 74.1001 18.6939C74.1001 19.8469 74.3482 20.7792 74.846 21.4925C75.3412 22.2058 76.2562 22.5605 77.5846 22.5605C78.2402 22.5605 78.8729 22.4918 79.4789 22.3578C80.0894 22.2221 80.6285 22.0512 81.1033 21.8493L81.4771 25.8852C80.844 26.1315 80.1458 26.3538 79.3799 26.5486C78.6123 26.7367 77.6986 26.8342 76.6391 26.8342C75.2406 26.8342 74.0567 26.629 73.0883 26.2249C72.1194 25.8144 71.3189 25.2695 70.6883 24.5793C70.0543 23.8874 69.5992 23.0795 69.3177 22.1522C69.0362 21.2257 68.8926 20.2524 68.8926 19.2367Z" fill="white"/>
<path d="M91.1297 26.8342C89.9349 26.8342 88.8972 26.6516 88.0169 26.2902C87.1391 25.9287 86.412 25.4215 85.837 24.764C85.2611 24.1098 84.8301 23.3345 84.5349 22.4412C84.2396 21.5482 84.0977 20.5594 84.0977 19.4759C84.0977 18.1168 84.3152 16.7581 84.755 15.4032C85.1926 14.0453 85.842 12.8253 86.7014 11.7409C87.5542 10.6549 88.6061 9.767 89.8447 9.07468C91.0821 8.38696 92.5053 8.04102 94.1039 8.04102C95.2769 8.04102 96.3092 8.22404 97.2017 8.58549C98.0899 8.9461 98.8216 9.45749 99.3999 10.1117C99.9721 10.7693 100.407 11.5412 100.699 12.4358C100.994 13.327 101.139 14.3184 101.139 15.4028C101.139 16.7577 100.924 18.1163 100.498 19.4754C100.072 20.8278 99.4392 22.0508 98.604 23.1377C97.7704 24.222 96.7281 25.1095 95.4761 25.7989C94.2258 26.4883 92.7759 26.8342 91.1297 26.8342ZM93.6316 12.3168C92.8895 12.3168 92.2334 12.5329 91.6717 12.9597C91.108 13.3915 90.6344 13.9343 90.2527 14.589C89.8669 15.2465 89.5808 15.9636 89.3874 16.743C89.1958 17.5241 89.1018 18.2625 89.1018 18.9641C89.1018 20.0961 89.2839 20.9778 89.6418 21.6123C90.0047 22.2435 90.6566 22.5609 91.6041 22.5609C92.3487 22.5609 93.0014 22.3465 93.5664 21.9151C94.1269 21.4866 94.6008 20.9434 94.9855 20.2875C95.3688 19.6333 95.6574 18.9142 95.8507 18.1335C96.0399 17.3549 96.1364 16.6123 96.1364 15.912C96.1364 14.7829 95.9551 13.8992 95.5939 13.2655C95.2331 12.6343 94.5783 12.3168 93.6316 12.3168Z" fill="white"/>
<path d="M106.594 26.3607H101.584L105.811 8.51994H110.854L106.594 26.3607ZM109.026 6.34623C108.328 6.34623 107.695 6.13765 107.134 5.71966C106.57 5.30418 106.287 4.66463 106.287 3.80269C106.287 3.32857 106.384 2.88377 106.575 2.46411C106.766 2.04528 107.02 1.68467 107.336 1.37809C107.651 1.07402 108.021 0.831097 108.436 0.648069C108.852 0.467973 109.297 0.37793 109.769 0.37793C110.469 0.37793 111.102 0.586507 111.665 1.0045C112.228 1.42458 112.512 2.06413 112.512 2.92147C112.512 3.39726 112.411 3.84373 112.222 4.26256C112.033 4.68138 111.779 5.04199 111.463 5.34857C111.146 5.65306 110.781 5.89514 110.365 6.0765C109.946 6.25952 109.501 6.34623 109.026 6.34623Z" fill="white"/>
<path d="M114.462 9.33145C114.842 9.22004 115.266 9.08602 115.728 8.94027C116.191 8.79451 116.708 8.65882 117.286 8.53652C117.858 8.41045 118.503 8.30826 119.212 8.2291C119.922 8.14826 120.73 8.10889 121.629 8.10889C124.269 8.10889 126.089 8.87996 127.093 10.4175C128.097 11.955 128.271 14.0592 127.62 16.7263L125.317 26.3593H120.278L122.51 16.929C122.646 16.3401 122.753 15.7709 122.832 15.2147C122.912 14.6635 122.907 14.1777 122.814 13.7572C122.725 13.3417 122.515 13.0016 122.19 12.7382C121.86 12.4789 121.361 12.3487 120.684 12.3487C120.031 12.3487 119.367 12.4191 118.689 12.5548L115.408 26.3589H110.367L114.462 9.33145Z" fill="white"/>
</g>
<defs>
<clipPath id="clip0_403_187">
<rect width="127.996" height="26.8054" fill="white" transform="translate(0.0078125 0.03125)"/>
</clipPath>
</defs>
</svg>
