<svg width="62" height="40" viewBox="0 0 62 40" fill="none" xmlns="http://www.w3.org/2000/svg">
<path d="M16.4294 17.3472C15.2745 17.3472 14.3892 17.7188 14.3892 17.7188L14.1447 19.1722C14.1447 19.1722 14.875 18.875 15.9807 18.875C16.6084 18.875 17.0669 18.9449 17.0669 19.4552C17.0669 19.7656 17.0112 19.8803 17.0112 19.8803C17.0112 19.8803 16.5167 19.8399 16.2875 19.8399C14.8302 19.8399 13.2998 20.4606 13.2998 22.3392C13.2998 23.8188 14.303 24.1565 14.9263 24.1565C16.115 24.1565 16.628 23.385 16.6542 23.3828L16.5986 24.0275H18.082L18.7435 19.3831C18.7424 17.4106 17.0254 17.3472 16.4294 17.3472ZM15.5976 22.7424C15.0747 22.7424 14.9383 22.3435 14.9383 22.1053C14.9383 21.6441 15.1882 21.089 16.4228 21.089C16.711 21.0901 16.7416 21.1196 16.7896 21.1283C16.8223 21.4125 16.6128 22.7424 15.5976 22.7424ZM20.8601 19.4541C20.8601 20.2967 22.8675 19.8825 22.8675 21.9785C22.8675 24.2199 20.6985 24.1215 20.3198 24.1215C18.9062 24.1215 18.4695 23.927 18.4291 23.9161L18.654 22.4397C18.6562 22.4288 19.3635 22.6976 20.1506 22.6976C20.6047 22.6976 21.1941 22.6528 21.1941 22.1108C21.1941 21.2955 19.0852 21.4922 19.0852 19.5601C19.0852 17.8565 20.3492 17.3581 21.5958 17.3581C22.5586 17.3581 23.1502 17.4904 23.1502 17.4904L22.9374 18.9788C22.9374 18.9788 22.0237 18.9034 21.7868 18.9034C21.1865 18.9045 20.8601 19.0356 20.8601 19.4541ZM24.8585 22.0201C24.8214 22.2506 24.8858 22.5643 25.472 22.5643C25.6216 22.5643 25.7908 22.514 25.9065 22.514L25.6958 23.9478C25.5266 23.9948 25.0474 24.1652 24.4328 24.1696C23.648 24.1773 23.0902 23.7358 23.0902 22.7402C23.0902 22.0714 24.0475 16.5604 24.0846 16.5243H25.7689L25.5975 17.5079H26.4381L26.223 19.0946H25.3312L24.8585 22.0201ZM31.3578 21.3239C31.3578 21.3239 31.5794 20.2311 31.5794 19.7864C31.5794 18.675 31.0271 17.3199 29.1779 17.3199C27.4838 17.321 26.2296 19.1482 26.2296 21.2136C26.2296 23.597 27.8004 24.163 29.1397 24.163C30.3754 24.163 30.919 23.8855 30.919 23.8855L31.2159 22.2594C31.2159 22.2594 30.2761 22.6746 29.4268 22.6746C27.6181 22.6746 27.9346 21.3239 27.9346 21.3239H31.3578ZM29.1834 18.8312C30.1342 18.8312 29.9584 19.9011 29.9584 19.9863H28.0885C28.0885 19.8771 28.2654 18.8312 29.1834 18.8312ZM13.9035 16.0031L12.575 24.0352H10.8503L11.8098 17.9799L9.6452 24.0352H8.48485L8.33421 17.9799L7.30922 24.0352H5.68386L7.03087 16.0031H9.4891L9.57534 20.9316L11.2356 16.0031H13.9035ZM35.2144 14.9452H26.4664C26.5527 14.7813 26.8583 14.1212 27.319 13.2481H34.531C34.7897 13.7967 35.0168 14.3628 35.2144 14.9452ZM33.6196 11.5837H28.2566C28.6005 11.0155 28.9804 10.4341 29.3842 9.88771H32.3904C32.8358 10.4254 33.2473 10.9914 33.6196 11.5837ZM30.8208 31.7482C30.2346 31.2182 29.7041 30.6314 29.203 30.0172H32.4701C31.9778 30.6215 31.4397 31.1876 30.8633 31.7132H30.8601C30.8601 31.7143 30.8611 31.7143 30.8611 31.7143C30.848 31.7253 30.8339 31.7362 30.8208 31.7482ZM33.6392 28.3846H28.0252C27.6836 27.8382 27.3648 27.2775 27.0908 26.6885H34.5605C34.2865 27.2743 33.9798 27.8403 33.6392 28.3846ZM35.6412 17.4478C35.4174 17.9045 35.2198 18.3231 35.0146 19.4039C33.8455 18.9897 33.7538 21.2562 33.2637 24.0483H31.5346L32.5858 17.5111H34.1544L34.0027 18.4586C34.0027 18.4586 34.5616 17.4281 35.3159 17.4281C35.5364 17.4259 35.6412 17.4478 35.6412 17.4478ZM38.7598 22.5217C39.3274 22.5217 40.1527 22.1075 40.1527 22.1075L39.8514 23.9478C39.8514 23.9478 38.9454 24.1783 38.3778 24.1783C36.3671 24.1783 35.3464 22.7894 35.3464 20.6857C35.3464 17.5133 37.2382 15.8238 39.1823 15.8238C40.0599 15.8238 41.0794 16.2369 41.0794 16.2369L40.8043 18.0237C40.8043 18.0237 40.1156 17.5417 39.2587 17.5417C38.1125 17.5417 37.0842 18.6367 37.0842 20.6278C37.0842 21.6081 37.5634 22.5217 38.7598 22.5217ZM55.2056 23.1052C55.1237 23.1489 55.0604 23.2123 55.0145 23.2954C54.9687 23.3773 54.9458 23.4626 54.9458 23.5511C54.9458 23.6396 54.9687 23.7237 55.0145 23.8046C55.0593 23.8855 55.1226 23.9499 55.2034 23.9958C55.2852 24.0407 55.3693 24.0636 55.4566 24.0636C55.5461 24.0636 55.6313 24.0407 55.711 23.9958C55.7917 23.9499 55.855 23.8855 55.8998 23.8046C55.9467 23.7237 55.9675 23.6396 55.9675 23.5511C55.9675 23.4615 55.9456 23.3762 55.8998 23.2954C55.855 23.2123 55.7896 23.1489 55.7077 23.1052C55.6269 23.0604 55.5439 23.0385 55.4566 23.0385C55.3726 23.0385 55.2885 23.0604 55.2056 23.1052ZM55.8267 23.3358C55.8649 23.4046 55.8856 23.4757 55.8856 23.5489C55.8856 23.6221 55.8671 23.6942 55.8288 23.7609C55.7917 23.8286 55.7393 23.88 55.6706 23.9204C55.6029 23.9576 55.533 23.9773 55.4599 23.9773C55.3857 23.9773 55.3147 23.9576 55.2481 23.9204C55.1794 23.8822 55.1281 23.8297 55.0888 23.7609C55.0495 23.692 55.032 23.6221 55.032 23.5489C55.032 23.4757 55.0506 23.4046 55.0909 23.3358C55.1291 23.268 55.1805 23.2156 55.2503 23.1773C55.3202 23.1391 55.3889 23.1227 55.4599 23.1227C55.5308 23.1227 55.6007 23.1413 55.6673 23.1773C55.7372 23.2156 55.7885 23.2669 55.8267 23.3358ZM48.9868 21.395C48.9868 22.7774 49.6734 24.1314 51.075 24.1314C52.0847 24.1314 52.6436 23.4265 52.6436 23.4265L52.5705 24.0286H54.2089L55.497 16.0085L53.8072 16.0118L53.4437 18.2684C53.4437 18.2684 52.8106 17.3909 51.8173 17.3909C50.2727 17.392 48.9868 19.2553 48.9868 21.395ZM53.0235 20.4125C53.0235 21.3032 52.5836 22.4932 51.671 22.4932C51.0641 22.4932 50.7803 21.984 50.7803 21.1841C50.7803 19.876 51.3665 19.0137 52.1077 19.0137C52.7124 19.0148 53.0235 19.4312 53.0235 20.4125ZM55.7644 28.8588C55.7524 28.8479 55.7372 28.8359 55.7175 28.8304C55.7644 28.8271 55.8037 28.8097 55.8321 28.7802C55.8594 28.7507 55.8747 28.7157 55.8747 28.6752C55.8747 28.6468 55.866 28.6195 55.8496 28.5944C55.8332 28.5692 55.8092 28.5507 55.7797 28.5408C55.7524 28.5299 55.7055 28.5244 55.6411 28.5244H55.4512V29.0763H55.5407V28.8414H55.592C55.6225 28.8414 55.6476 28.8479 55.6618 28.861C55.6848 28.8796 55.7175 28.9222 55.7557 28.9889L55.8037 29.0763H55.914L55.8463 28.9681C55.8136 28.9178 55.7863 28.8818 55.7644 28.8588ZM55.6476 28.767H55.5385V28.6009H55.6411C55.6837 28.6009 55.7121 28.6042 55.7284 28.6108C55.7459 28.6173 55.7568 28.6272 55.7666 28.6392C55.7754 28.6523 55.7797 28.6665 55.7797 28.6818C55.7797 28.7069 55.771 28.7288 55.7524 28.7441C55.7339 28.7594 55.6979 28.767 55.6476 28.767ZM60.0653 0H1.58716C0.709527 0 0 0.711417 0 1.58894V38.4111C0 39.2886 0.709527 40 1.58716 40H60.0653C60.9429 40 61.6524 39.2886 61.6524 38.4111V1.58894C61.6524 0.711417 60.9429 0 60.0653 0ZM56.117 29.0468C56.0712 29.1299 56.009 29.1932 55.9282 29.238C55.8474 29.2828 55.7623 29.3058 55.6749 29.3058C55.5854 29.3058 55.5003 29.2828 55.4195 29.238C55.3398 29.1932 55.2765 29.1299 55.2296 29.0468C55.1848 28.967 55.1619 28.8818 55.1619 28.7933C55.1619 28.7048 55.1848 28.6206 55.2307 28.5376C55.2754 28.4545 55.3409 28.3922 55.4217 28.3474C55.5036 28.3048 55.5865 28.2818 55.6738 28.2818C55.7601 28.2818 55.843 28.3048 55.9238 28.3474C56.0057 28.3922 56.0701 28.4545 56.1148 28.5376C56.1607 28.6206 56.1825 28.7058 56.1825 28.7933C56.1825 28.8807 56.1629 28.9681 56.117 29.0468ZM57.261 20.0005C57.2632 28.7485 50.1832 35.843 41.444 35.8451C37.3571 35.8462 33.6305 34.2956 30.8229 31.7482C28.0154 34.2912 24.2964 35.8408 20.2161 35.8408C11.4823 35.8408 4.39361 28.7452 4.39361 20.0005C4.39361 11.2909 11.4267 4.21605 20.1145 4.15922C20.1484 4.15922 20.1822 4.15922 20.2161 4.15922C24.2964 4.15922 28.0165 5.70882 30.824 8.25178C33.6305 5.70773 37.3528 4.15704 41.4364 4.15594C50.1756 4.15266 57.261 11.2439 57.2632 19.9929C57.261 19.9951 57.261 19.9973 57.261 20.0005ZM55.2339 23.2822V23.833H55.3234V23.5992H55.3748C55.4064 23.5992 55.4315 23.6057 55.4468 23.6177C55.4697 23.6374 55.5003 23.6789 55.5407 23.7478L55.5876 23.8341H55.6979L55.6302 23.7259C55.5985 23.6746 55.5701 23.6385 55.5494 23.6166C55.5363 23.6046 55.5221 23.5948 55.5025 23.5882C55.5494 23.585 55.5876 23.5675 55.616 23.538C55.6433 23.5096 55.6597 23.4724 55.6597 23.4331C55.6597 23.4057 55.6509 23.3773 55.6335 23.3522C55.616 23.3281 55.5931 23.3096 55.5658 23.2986C55.5385 23.2877 55.4905 23.2822 55.4261 23.2822H55.2339ZM55.5516 23.3948C55.5614 23.409 55.5658 23.421 55.5658 23.4396C55.5658 23.4637 55.556 23.4844 55.5396 23.4997C55.5188 23.5161 55.485 23.5227 55.4337 23.5227H55.3256V23.3566H55.4261C55.4697 23.3566 55.4981 23.3598 55.5156 23.3653C55.5298 23.3729 55.5429 23.3806 55.5516 23.3948ZM43.7385 17.3472C42.5814 17.3472 41.6973 17.7188 41.6973 17.7188L41.4516 19.1722C41.4516 19.1722 42.183 18.875 43.2877 18.875C43.9153 18.875 44.3749 18.9449 44.3749 19.4552C44.3749 19.7656 44.317 19.8803 44.317 19.8803C44.317 19.8803 43.8237 19.8399 43.5922 19.8399C42.1361 19.8399 40.6068 20.4606 40.6068 22.3392C40.6068 23.8188 41.611 24.1565 42.2332 24.1565C43.4209 24.1565 43.9339 23.385 43.9612 23.3828L43.9055 24.0275H45.3879L46.0494 19.3831C46.0527 17.4106 44.3345 17.3472 43.7385 17.3472ZM42.9089 22.7424C42.3849 22.7424 42.2496 22.3435 42.2496 22.1053C42.2496 21.6441 42.4996 21.089 43.7341 21.089C44.0212 21.0901 44.0518 21.1196 44.1009 21.1283C44.1326 21.4125 43.9219 22.7424 42.9089 22.7424ZM49.1582 19.4028C47.9891 18.9886 47.8996 21.254 47.4073 24.0472H45.6782L46.7294 17.51H48.2991L48.1485 18.4575C48.1485 18.4575 48.7085 17.427 49.4628 17.427C49.6822 17.427 49.787 17.4488 49.787 17.4488C49.5632 17.9045 49.3645 18.3231 49.1582 19.4028Z" fill="white"/>
</svg>
