<svg width="102" height="28" viewBox="0 0 102 28" fill="none" xmlns="http://www.w3.org/2000/svg">
<path d="M18.7867 5.04531C18.4577 4.39848 17.9372 3.86499 17.2911 3.46438C16.617 3.05986 15.8213 2.77651 14.912 2.60845C13.9866 2.4443 12.9177 2.37004 11.6793 2.35832L5.96188 2.36222C5.3676 2.37004 4.78528 2.82341 4.64569 3.38621L0.79883 19.8052C0.659234 20.3602 1.03215 20.8253 1.62643 20.8253H4.3645C4.95878 20.8253 5.54708 20.3739 5.6787 19.8052L6.61798 15.8187C6.74361 15.2637 7.32991 14.8006 7.93018 14.8006H8.71391C12.0622 14.7966 14.6547 14.1264 16.5173 12.7838C18.3899 11.4394 19.3132 9.66302 19.3132 7.46262C19.3112 6.49921 19.1497 5.69019 18.7867 5.04531ZM12.8818 10.4095C12.0542 11.0036 10.9036 11.3006 9.41986 11.3006H8.7498C8.15353 11.3006 7.78859 10.8394 7.91821 10.2766L8.74183 6.79039C8.85749 6.23149 9.45775 5.76835 10.046 5.77226L10.9434 5.7664C11.9904 5.7664 12.7901 5.94423 13.3246 6.28816C13.853 6.62819 14.1183 7.16949 14.1143 7.88668C14.1302 8.97711 13.7055 9.81545 12.8818 10.4095ZM50.5208 8.26579L39.6124 26.3439C39.2614 26.9086 38.4857 27.3639 37.8954 27.3639L35.0596 27.3679C34.4713 27.3679 34.2779 26.9086 34.6368 26.3458L37.0618 22.2069C37.0618 22.2069 37.2572 21.9665 37.0837 20.6181C36.7108 18.1735 34.8482 7.78702 34.8482 7.78702C34.7146 7.22421 35.0776 6.76303 35.6678 6.76303L38.1207 6.75912C38.8726 6.75912 39.4768 7.24375 39.6124 7.81046L40.8329 15.0155L41.2876 15.0214C41.6685 14.3589 45.5891 7.76552 45.5891 7.76552C45.964 7.20858 46.7218 6.74153 47.3121 6.74153C47.3121 6.74153 49.9465 6.74935 50.5946 6.74153C51.5698 6.72004 50.5208 8.26579 50.5208 8.26579ZM68.5067 5.10589C68.1637 4.45515 67.6492 3.92947 66.9991 3.5191C66.333 3.11263 65.5433 2.82732 64.62 2.66317C63.7126 2.50488 62.6298 2.41889 61.3993 2.41694L55.6739 2.42085C55.0776 2.43062 54.5053 2.88399 54.3677 3.44093L50.5168 19.8677C50.3772 20.4247 50.7601 20.8859 51.3424 20.8859L54.0845 20.882C54.6668 20.8859 55.2631 20.4286 55.4007 19.8658L56.328 15.8773C56.4636 15.3223 57.0519 14.8553 57.6442 14.8592H58.4279C61.7802 14.8592 64.3787 14.183 66.2493 12.8444C68.0979 11.4902 69.0332 9.71774 69.0332 7.51539C69.0232 6.55589 68.8537 5.7449 68.5067 5.10589ZM62.6018 10.4779C61.7762 11.0603 60.6236 11.3573 59.1478 11.3573H58.4658C57.8775 11.3632 57.4966 10.8942 57.6282 10.3353L58.4578 6.85487C58.5795 6.29793 59.1738 5.83088 59.766 5.83675L60.6535 5.83088C61.7064 5.83675 62.4961 6.00676 63.0346 6.3507C63.571 6.69463 63.8243 7.23398 63.8303 7.94921C63.8363 9.03964 63.4235 9.87994 62.6018 10.4779ZM31.9885 7.39227C30.9555 6.82165 29.3242 6.53634 27.0947 6.53634C25.9919 6.53634 24.893 6.62037 23.7823 6.78843C22.9626 6.91155 22.8829 6.93499 22.3783 7.04247C21.3373 7.26525 21.1738 8.28338 21.1738 8.28338L20.8388 9.63371C20.6493 10.4955 21.1559 10.4623 21.3673 10.39C21.8219 10.2571 22.0752 10.1203 23.0045 9.91707C23.8919 9.7197 24.8272 9.57118 25.5691 9.58095C26.6639 9.58095 27.5015 9.69429 28.0599 9.92488C28.6103 10.1594 28.8855 10.5619 28.8855 11.1443L28.8376 11.5234L28.4428 11.7618C26.8893 11.8576 25.7665 11.9983 24.4045 12.1917C23.0723 12.3735 21.9037 12.692 20.9325 13.1278C19.8895 13.5772 19.1158 14.1811 18.5753 14.9491C18.0529 15.721 17.7916 16.657 17.7916 17.7553C17.7916 18.789 18.1705 19.643 18.9064 20.3035C19.6462 20.9523 20.6234 21.2689 21.792 21.2689C22.5319 21.265 23.1042 21.2083 23.5111 21.1125L24.8372 20.665L25.96 20.0553L26.993 19.387L27.0069 19.4065L26.9032 19.8365L26.8972 19.8541V19.858C26.7856 20.3817 27.1086 20.8116 27.6291 20.8624L27.6391 20.8741H27.687H29.7869H30.1817L30.2176 20.8585C30.764 20.796 31.2766 20.366 31.3962 19.8541L33.3924 11.3866L33.4961 10.6968L33.544 10.05C33.552 8.85009 33.0235 7.96094 31.9885 7.39227ZM27.5733 16.913L27.1465 17.4641L26.0696 18.0093C25.5631 18.2106 25.0825 18.3122 24.6378 18.3122C23.9637 18.3122 23.4353 18.2165 23.0783 18.021L22.5498 17.0146C22.5498 16.4694 22.6775 16.0375 22.9507 15.7053L24.1113 14.9315C24.6079 14.7673 25.2141 14.6286 25.9161 14.5328C26.5423 14.4566 27.7787 14.3179 27.9402 14.314L28.1297 14.6403C28.0938 14.826 27.7428 16.2642 27.5733 16.913ZM95.9393 1.44571H96.8546V1.81506H95.9393V3.00906L95.9433 3.33149L96.0091 3.54645L96.1527 3.68325L96.4339 3.72624L96.6632 3.69497L96.8347 3.64416H96.8586V4.03695L96.5814 4.08972L96.3202 4.11121L95.698 3.89234L95.4866 3.20447V1.81506H95.1795V1.44571H95.4866V0.701172H95.9393V1.44571ZM81.7185 7.404C80.6795 6.83338 79.0502 6.54611 76.8266 6.54611C75.7238 6.54611 74.623 6.63014 73.5162 6.80407C72.6946 6.92132 72.6128 6.94672 72.1063 7.05224C71.0673 7.27307 70.9058 8.2951 70.9058 8.2951L70.5708 9.64348C70.3833 10.5053 70.8779 10.4662 71.1092 10.3997C71.5659 10.2669 71.8112 10.1359 72.7325 9.92488C73.6159 9.72947 74.5592 9.58486 75.3031 9.58877C76.3939 9.58877 77.2315 9.70406 77.7879 9.93465C78.3422 10.1692 78.6135 10.5756 78.6135 11.1521L78.5716 11.5293L78.1807 11.7735C76.6113 11.8654 75.4865 12.0061 74.1384 12.1995C72.8103 12.3813 71.6377 12.6979 70.6645 13.1356C69.6255 13.587 68.8418 14.1909 68.3073 14.9608C67.7788 15.7327 67.5216 16.6668 67.5216 17.7553C67.5216 18.7968 67.8965 19.6508 68.6423 20.3074C69.3862 20.9543 70.3534 21.2786 71.522 21.2786C72.2579 21.2708 72.8302 21.2239 73.239 21.1204L74.5612 20.6787L75.6939 20.069L76.7189 19.3929L76.7369 19.4144L76.6432 19.8482L76.6332 19.856L76.6372 19.8638C76.5135 20.3875 76.8386 20.8214 77.3651 20.8683L77.3691 20.878H77.4169C77.7619 20.878 78.9545 20.878 79.5228 20.878H79.9097L79.9516 20.8644C80.492 20.7999 81.0025 20.37 81.1162 19.8521L83.1184 11.3964L83.2241 10.7026L83.2819 10.0539C83.2839 8.8579 82.7615 7.97266 81.7185 7.404ZM77.3132 16.9247L76.8685 17.4817L75.8016 18.023C75.2951 18.2223 74.8125 18.3259 74.3757 18.3259C73.6798 18.3259 73.1652 18.2282 72.8183 18.0328L72.2838 17.0303C72.2838 16.4831 72.4134 16.0551 72.6747 15.7171C72.9399 15.3985 73.3447 15.1367 73.8473 14.9452C74.3379 14.781 74.9441 14.6481 75.65 14.5485C76.2722 14.4723 77.5047 14.3296 77.6642 14.3276L77.8577 14.654C77.8297 14.8396 77.4768 16.272 77.3132 16.9247ZM91.9847 3.57186L91.9927 3.57381L88.3273 19.8541L88.1957 20.0495C87.9823 20.5067 87.5137 20.878 87.0151 20.878H84.4685L84.4266 20.8214C83.94 20.7491 83.625 20.37 83.7386 19.8677L83.7346 19.856L83.8463 19.387L87.2744 4.11707L87.398 3.58554L87.5336 3.37839C87.755 2.92893 88.2077 2.5635 88.7102 2.5635H91.1631C91.7514 2.55569 92.1104 3.01101 91.9847 3.57186ZM101.08 1.63527L101.29 2.36418V4.05845H100.843V2.56741L100.813 2.24888L100.757 1.99679L100.598 1.84632L100.305 1.79356L99.9297 1.8854L99.5508 2.12186L99.5588 2.24888L99.5668 2.38763V4.05649H99.1221V2.56546L99.1001 2.24302L99.0343 1.99288L98.8848 1.84241L98.5816 1.78965L98.2107 1.87954L97.8378 2.10623V4.05454H97.3951V1.44571H97.8398V1.73493L98.2606 1.46917L98.7053 1.37341L99.1679 1.48089L99.4531 1.7916L99.9437 1.46721L100.426 1.37146L101.08 1.63527Z" fill="white"/>
</svg>
