<svg width="61" height="40" viewBox="0 0 61 40" fill="none" xmlns="http://www.w3.org/2000/svg">
<path d="M56.346 40H4.0755C1.85568 40 0.0546875 38.2083 0.0546875 36V4C0.0546875 1.79167 1.85568 0 4.0755 0H56.346C58.5659 0 60.3668 1.79167 60.3668 4V36C60.3668 38.2083 58.5659 40 56.346 40ZM29.9427 24.6033L29.3413 28.3533C30.6648 28.9167 32.2044 29.245 33.8211 29.245C33.9501 29.245 34.0774 29.2433 34.2048 29.2383H34.1863C34.3338 29.2467 34.5047 29.2517 34.6789 29.2517C36.5368 29.2517 38.2591 28.6717 39.6731 27.6833L39.6446 27.7017C40.9279 26.755 41.7522 25.2533 41.7522 23.56C41.7522 23.5517 41.7522 23.5433 41.7522 23.535V23.5367C41.7522 21.7033 40.5191 20.18 38.0882 19.0033C37.3745 18.6567 36.7647 18.2933 36.1917 17.8833L36.2303 17.91C35.8985 17.6933 35.6774 17.335 35.6556 16.9233V16.92C35.6824 16.4867 35.932 16.1167 36.2906 15.92L36.2973 15.9167C36.7697 15.6433 37.336 15.4817 37.9424 15.4817C38.0128 15.4817 38.0832 15.4833 38.1535 15.4883H38.1435H38.2775C38.3161 15.4883 38.3613 15.4867 38.4065 15.4867C39.4854 15.4867 40.5091 15.7183 41.4322 16.1333L41.3853 16.115L41.7773 16.3233L42.3787 12.705C41.2479 12.26 39.9361 12.0017 38.564 12.0017C38.5372 12.0017 38.5087 12.0017 38.4819 12.0017H38.4869C38.3797 11.9967 38.2541 11.9933 38.1284 11.9933C36.2922 11.9933 34.5901 12.5717 33.1979 13.555L33.2247 13.5367C31.9648 14.43 31.1523 15.8767 31.1523 17.5133V17.5217C31.1356 19.285 32.4122 20.8083 34.9486 22.055C35.6188 22.3467 36.1967 22.7033 36.7144 23.1317L36.7027 23.1217C36.9959 23.3683 37.1852 23.73 37.2003 24.135V24.1383V24.1417C37.2003 24.6733 36.882 25.13 36.4229 25.335L36.4145 25.3383C35.9119 25.6017 35.3155 25.755 34.6822 25.755C34.6571 25.755 34.6303 25.755 34.6052 25.755H34.6085C34.5717 25.755 34.5264 25.755 34.4829 25.755C33.0471 25.755 31.6867 25.4383 30.4671 24.8717L30.5257 24.8967L29.9511 24.61L29.9427 24.6033ZM46.9055 26.505H52.4593C52.5486 26.8861 52.7234 27.7194 52.9836 29.005H57.0162L53.508 12.2867H50.1573C50.0987 12.2817 50.03 12.2783 49.9596 12.2783C49.0181 12.2783 48.2123 12.8583 47.8839 13.6783L47.8789 13.6933L41.4456 29.005H46.0025L46.9172 26.5067L46.9055 26.505ZM25.0021 12.2867L22.278 29.005H26.6239L29.3463 12.2867H25.0021ZM8.3007 15.6983L11.8357 28.9783H16.416L23.243 12.2867H18.6426L14.3973 23.6933L13.9516 21.375L12.4371 13.6933C12.2847 12.8783 11.576 12.2683 10.7232 12.2683C10.6361 12.2683 10.549 12.275 10.4652 12.2867L10.4753 12.285H3.46065L3.40871 12.6233C8.81 13.9883 12.3584 16.9333 13.9566 21.3733C13.439 20.0533 12.6834 18.9283 11.7351 18L11.7335 17.9983C10.7836 17.0283 9.64265 16.25 8.37106 15.7183L8.30405 15.6933L8.3007 15.6983ZM51.7539 23.0667H48.1352C48.3798 22.4244 48.9561 20.8689 49.8642 18.4L49.9412 18.165C50.0116 17.9917 50.0987 17.765 50.2093 17.4883C50.3198 17.2117 50.3936 16.985 50.4438 16.8117L50.7588 18.2433L51.7523 23.06L51.7539 23.0667Z" fill="white"/>
</svg>
