<svg width="113" height="28" viewBox="0 0 113 28" fill="none" xmlns="http://www.w3.org/2000/svg">
<path d="M99.5167 0.70166C101.549 0.70166 103.483 1.16451 105.218 1.99248C105.49 2.11452 105.764 2.26058 106.036 2.40677L104.846 3.45439L103.062 1.6275L99.9883 4.30664L98.1784 2.38212L92.5265 7.37566L96.145 11.2973L94.7324 12.5149L98.3024 16.4365L96.8897 17.6536L101.996 23.2317L105.019 20.5035L107.648 23.4272C107.127 23.817 106.557 24.2075 105.938 24.5479C104.053 25.5952 101.872 26.2029 99.5417 26.2029C92.3772 26.2029 86.5528 20.4801 86.5528 13.4414C86.5275 6.4502 92.3529 0.70166 99.5167 0.70166ZM97.1366 12.6613L100.235 9.93314L103.012 12.9777L99.9129 15.7057L97.1366 12.6613ZM99.3434 17.9227L102.417 15.1704L105.218 18.2148L102.119 20.9431L99.3434 17.9227ZM94.9317 7.47342L98.0295 4.74521L100.806 7.78982L97.707 10.5179L94.9317 7.47342ZM100.607 6.01149L102.913 3.96557L104.995 6.23092L102.69 8.30101L100.607 6.01149ZM104.723 15.3892L107.027 13.3431L109.11 15.6321L106.804 17.6794L104.723 15.3892ZM106.755 19.9932L109.061 17.9468L111.141 20.212L108.837 22.2818L106.755 19.9932ZM107.697 9.47028L109.234 8.10611L110.621 9.61685L109.085 10.9805L107.697 9.47028ZM105.714 4.96412L107.251 3.57605L108.639 5.11031L107.101 6.47435L105.714 4.96412ZM109.655 13.9768L111.192 12.6128L112.605 14.123L111.044 15.4867L109.655 13.9768ZM102.739 10.591L105.045 8.54495L107.127 10.8098L104.822 12.8562L102.739 10.591Z" fill="white"/>
<mask id="mask0_403_169" style="mask-type:alpha" maskUnits="userSpaceOnUse" x="0" y="6" width="15" height="12">
<path d="M0.691406 6.00391V17.7773H14.2401V6.00391H0.691406Z" fill="white"/>
</mask>
<g mask="url(#mask0_403_169)">
<path d="M7.49083 9.49014H7.37392L5.17883 17.7773H3.38466L0.691406 6.00391H2.55296L4.41496 14.7888H4.53123L6.69197 6.00391H8.17196L10.4828 14.7888H10.5991L12.295 6.00391H14.2401L11.5462 17.7773H9.75067L7.49083 9.49014Z" fill="white"/>
</g>
<path d="M16.603 12.7606H20.4091C20.3266 11.0176 19.4783 10.3208 18.5809 10.3208C17.5669 10.3208 16.7851 11.1011 16.603 12.7606ZM21.7389 15.8834V17.1457C20.9909 17.5773 19.994 17.9096 18.7964 17.9096C16.0044 17.9096 14.8574 16.1827 14.8574 13.5593C14.8574 11.0342 16.1372 9.20752 18.6308 9.20752C20.7082 9.20752 21.989 10.5535 21.989 13.2595V13.874H16.5697C16.5697 15.8661 17.3837 16.7464 19.0966 16.7464C19.9941 16.7464 20.8252 16.4304 21.7389 15.8834Z" fill="white"/>
<path d="M25.8567 16.5784C26.3888 16.8109 26.971 16.8453 27.3873 16.8453C28.6172 16.8453 29.5471 16.0803 29.5471 13.3909C29.5471 11.282 28.7825 10.6011 27.6692 10.6011C27.0037 10.6011 26.5218 10.7844 25.8567 11.149V16.5784H25.8567ZM25.8742 9.92051C26.3717 9.6557 27.2193 9.30576 28.1174 9.30576C30.1789 9.30576 31.2929 10.7338 31.2929 13.3909C31.2929 16.4964 29.7965 18.0075 27.3873 18.0075C26.5056 18.0075 25.1425 17.7251 24.1445 17.1925V5.60303L25.8742 5.18848V9.92051H25.8742Z" fill="white"/>
<path d="M38.7743 15.2791H38.8576L42.4143 5.99658H44.4768V17.7709H42.6814V9.23494H42.5315L39.1398 17.7709H38.0769L34.6844 9.4345H34.5353V17.7709H33.0391V5.99658H35.0511L38.7743 15.2791Z" fill="white"/>
<path d="M51.8125 13.5588C51.8125 11.3172 50.8988 10.3711 49.7685 10.3711C48.6717 10.3711 47.7233 11.3172 47.7233 13.5588C47.7233 15.834 48.5888 16.7464 49.7685 16.7464C50.9481 16.7464 51.8125 15.834 51.8125 13.5588ZM45.9785 13.5588C45.9785 10.6517 47.5748 9.20752 49.7685 9.20752C51.9635 9.20752 53.5589 10.6517 53.5589 13.5588C53.5589 16.3978 52.0462 17.9096 49.7685 17.9096C47.4911 17.9096 45.9785 16.3978 45.9785 13.5588Z" fill="white"/>
<path d="M54.873 10.4373C55.621 9.98818 57.201 9.20752 59.1122 9.20752C61.1069 9.20752 61.8536 9.98818 61.8536 11.6981V17.7102H60.126V12.0805C60.126 10.769 59.4787 10.5365 58.6299 10.5365C57.9657 10.5365 57.1169 10.8359 56.602 11.1347V17.7102H54.8731V10.4373H54.873Z" fill="white"/>
<path d="M65.5126 12.7606H69.3191C69.2373 11.0176 68.3885 10.3208 67.4908 10.3208C66.4765 10.3208 65.6962 11.1011 65.5126 12.7606ZM70.6486 15.8834V17.1457C69.901 17.5773 68.9036 17.9096 67.7065 17.9096C64.9153 17.9096 63.7676 16.1827 63.7676 13.5593C63.7676 11.0342 65.0469 9.20752 67.5407 9.20752C69.6193 9.20752 70.8999 10.5535 70.8999 13.2595V13.874H65.4799C65.4799 15.8661 66.2946 16.7464 68.0068 16.7464C68.9035 16.7464 69.736 16.4304 70.6486 15.8834Z" fill="white"/>
<path d="M77.8058 9.20752H79.585L76.5759 17.5092C75.7436 19.801 74.7307 20.9967 72.8193 20.9967V19.636C73.9504 19.636 74.6475 18.7389 75.0474 17.5092L71.8555 9.20752H73.6844L75.812 15.3183H75.9118L77.8058 9.20752Z" fill="white"/>
<path d="M18.6497 25.4259V24.7089C19.2662 25.02 19.8528 25.1762 20.4086 25.1762C20.8715 25.1762 21.2261 25.0918 21.4739 24.9215C21.7217 24.7523 21.8459 24.5235 21.8459 24.2343C21.8459 23.9452 21.7439 23.7283 21.5401 23.584C21.3367 23.4399 20.9565 23.2615 20.4005 23.0502C20.2075 22.9781 20.0842 22.9312 20.0285 22.9088C19.9737 22.887 19.8664 22.842 19.7064 22.7756C19.5469 22.7094 19.4424 22.6589 19.393 22.6258C19.3432 22.5915 19.2596 22.5413 19.1409 22.4755C19.0227 22.4081 18.9429 22.3488 18.9014 22.297C18.8605 22.2436 18.8037 22.1762 18.7321 22.0958C18.6607 22.0156 18.6123 21.9359 18.5874 21.8547C18.5629 21.7743 18.5391 21.6812 18.5174 21.5754C18.4956 21.4694 18.4844 21.3558 18.4844 21.2335C18.4844 20.7611 18.6594 20.3814 19.0087 20.0921C19.3587 19.8037 19.8415 19.6592 20.4583 19.6592C21.0032 19.6592 21.5459 19.759 22.085 19.9592V20.717C21.5621 20.4611 21.0391 20.3344 20.516 20.3344C20.1471 20.3344 19.8718 20.4109 19.6901 20.5663C19.5084 20.7217 19.4175 20.9274 19.4175 21.1833C19.4175 21.4557 19.5084 21.6622 19.6901 21.8042C19.8718 21.9468 20.1969 22.1037 20.6649 22.2754C21.4685 22.57 22.022 22.8366 22.3245 23.0758C22.6276 23.314 22.7789 23.6706 22.7789 24.1422C22.7789 24.6372 22.5711 25.0417 22.1554 25.3556C21.7396 25.6695 21.1686 25.8266 20.4417 25.8266C19.7758 25.8266 19.1782 25.6925 18.6497 25.4259ZM27.0528 25.7004H26.2683L26.2104 25.217C25.7365 25.6064 25.2633 25.8012 24.7898 25.8012C24.3936 25.8012 24.0866 25.6944 23.8692 25.4799C23.6514 25.2661 23.5428 24.996 23.5428 24.6673C23.5428 24.4948 23.5743 24.33 23.6377 24.1715C23.7012 24.013 23.8058 23.8593 23.9516 23.7093C24.0974 23.5591 24.3176 23.4386 24.6121 23.3465C24.9065 23.2543 25.2605 23.2088 25.6736 23.2088H26.1858V22.9838C26.1858 22.6116 26.1169 22.3582 25.9792 22.2213C25.8412 22.0851 25.6101 22.0171 25.2854 22.0171C24.889 22.0171 24.4016 22.1802 23.8238 22.5089V21.8423C24.4184 21.5702 25.0018 21.433 25.5743 21.433C26.1302 21.433 26.516 21.5475 26.7304 21.7758C26.9454 22.0031 27.0528 22.3481 27.0528 22.8081V25.7004ZM26.194 23.7919H25.756C24.8529 23.7919 24.4016 24.0616 24.4016 24.6008C24.4016 24.7903 24.4619 24.9264 24.5832 25.013C24.7046 25.0994 24.856 25.142 25.0379 25.142C25.2686 25.142 25.4918 25.0864 25.7065 24.975C25.9212 24.8646 26.0839 24.7368 26.194 24.5923V23.7919H26.194ZM28.3947 27.3678V22.0426C28.6371 21.8588 28.923 21.7109 29.2536 21.6C29.5842 21.4897 29.9085 21.433 30.2283 21.433C31.373 21.433 31.9459 22.1307 31.9459 23.5258C31.9459 24.248 31.7973 24.8009 31.4998 25.1836C31.2026 25.5674 30.7763 25.7583 30.2198 25.7583C29.8343 25.7583 29.5122 25.661 29.2536 25.4678V27.3678H28.3947ZM29.2454 22.325V24.8513C29.3555 24.9564 29.4943 25.0346 29.6623 25.0878C29.8304 25.1405 29.9778 25.1668 30.1042 25.1668C30.4068 25.1668 30.6453 25.0494 30.8187 24.8133C30.9922 24.5767 31.0785 24.1476 31.0785 23.5258C31.0785 23.0202 30.9896 22.6497 30.8105 22.4176C30.6316 22.1834 30.3987 22.0673 30.1124 22.0673C29.788 22.0673 29.499 22.1529 29.2454 22.325ZM33.9157 21.4758V25.7004H33.0568V21.6837L33.9157 21.4758ZM32.9246 20.25C32.9246 20.1 32.9809 19.9685 33.0937 19.8539C33.2069 19.7401 33.3377 19.683 33.4858 19.683C33.6348 19.683 33.7656 19.7401 33.8787 19.8539C33.9915 19.9685 34.0479 20.1 34.0479 20.25C34.0479 20.4 33.9915 20.5324 33.8787 20.6467C33.7655 20.7595 33.6348 20.8167 33.4858 20.8167C33.3377 20.8167 33.2069 20.7595 33.0937 20.6467C32.9809 20.5324 32.9246 20.4 32.9246 20.25ZM37.1323 25.217C37.529 25.217 37.9663 25.0725 38.4454 24.7841V25.4174C38.0051 25.6734 37.5178 25.8011 36.9837 25.8011C36.312 25.8011 35.8181 25.6093 35.5015 25.2257C35.1848 24.842 35.0265 24.3062 35.0265 23.6172C35.0265 22.9613 35.1891 22.4329 35.5135 22.0342C35.8387 21.6341 36.3008 21.4329 36.9009 21.4329C37.4299 21.4329 37.8395 21.6057 38.132 21.9506C38.4237 22.2956 38.5691 22.8004 38.5691 23.467V23.7758H35.8772C35.8772 24.2706 35.9791 24.6349 36.1825 24.8668C36.3863 25.1012 36.7029 25.217 37.1323 25.217ZM36.876 21.9923C36.6177 21.9923 36.3999 22.0953 36.2237 22.3C36.0478 22.5059 35.9375 22.8121 35.8935 23.2165H37.7846C37.7624 22.8059 37.6664 22.4997 37.4956 22.297C37.3252 22.0936 37.1187 21.9923 36.876 21.9923ZM39.6633 25.7004V22.0505C40.3405 21.639 41.0425 21.433 41.7696 21.433C42.2596 21.433 42.6089 21.5337 42.8181 21.7339C43.0274 21.9341 43.132 22.2505 43.132 22.6836V25.7004H42.2733V22.8754C42.2733 22.57 42.2099 22.3641 42.0833 22.2591C41.9566 22.1529 41.7723 22.1005 41.5299 22.1005C41.1997 22.1005 40.8637 22.201 40.5226 22.4008V25.7004H39.6633V25.7004ZM45.2916 21.6342H46.5965L46.39 22.201H45.2916V24.4006C45.2916 24.9564 45.5284 25.2341 46.0018 25.2341C46.1835 25.2341 46.3678 25.1955 46.5557 25.1175V25.6504C46.2967 25.7507 45.9882 25.8012 45.6304 25.8012C45.2174 25.8012 44.9146 25.6828 44.7218 25.4459C44.5292 25.2108 44.4328 24.9007 44.4328 24.5164V21.0835L45.2916 20.4578V21.6342H45.2916ZM48.2777 21.4758V25.7004H47.4185V21.6837L48.2777 21.4758ZM47.2866 20.25C47.2866 20.1 47.343 19.9685 47.4553 19.8539C47.5681 19.7401 47.6988 19.683 47.8479 19.683C47.9964 19.683 48.1275 19.7401 48.2399 19.8539C48.3531 19.9685 48.4095 20.1 48.4095 20.25C48.4095 20.4 48.3531 20.5324 48.2399 20.6467C48.1275 20.7595 47.9964 20.8167 47.8479 20.8167C47.6988 20.8167 47.5681 20.7595 47.4553 20.6467C47.343 20.5324 47.2866 20.4 47.2866 20.25ZM54.1245 21.7671V22.4329C53.7114 22.1554 53.2929 22.0171 52.8693 22.0171C52.6546 22.0171 52.4784 22.0587 52.3404 22.1423C52.203 22.225 52.1341 22.3589 52.1341 22.5413C52.1341 22.7146 52.2096 22.8516 52.361 22.9543C52.5125 23.0574 52.7507 23.1616 53.0758 23.2665C53.2575 23.3277 53.3935 23.3752 53.4842 23.4083C53.5753 23.4425 53.6947 23.4981 53.8437 23.5754C53.9922 23.6536 54.1039 23.7306 54.1781 23.809C54.2525 23.887 54.3198 23.9892 54.3806 24.1174C54.4411 24.2451 54.471 24.3864 54.471 24.5421C54.471 24.9258 54.3183 25.2312 54.0132 25.4591C53.7075 25.6868 53.2984 25.8012 52.7868 25.8012C52.2139 25.8012 51.7374 25.6789 51.3577 25.4337V24.7841C51.8421 25.0725 52.2854 25.217 52.6877 25.217C53.2929 25.217 53.5959 25.0176 53.5959 24.6171C53.5959 24.5397 53.5779 24.4668 53.5422 24.4006C53.5064 24.3339 53.4651 24.2798 53.4184 24.2379C53.3714 24.1963 53.2956 24.1493 53.191 24.0957C53.0863 24.044 52.9985 24.0053 52.9268 23.9798C52.8553 23.9551 52.7425 23.9147 52.5885 23.8593C52.3625 23.7759 52.1836 23.7039 52.0513 23.6424C51.919 23.5808 51.7873 23.5019 51.6551 23.4051C51.5227 23.3078 51.4262 23.1917 51.3661 23.0588C51.3056 22.9259 51.2753 22.7671 51.2753 22.5839C51.2753 22.3505 51.3302 22.151 51.4403 21.9847C51.5503 21.8169 51.6938 21.6975 51.8696 21.6256C52.0458 21.5531 52.2069 21.5028 52.3528 21.4758C52.4989 21.4471 52.6433 21.433 52.7868 21.433C53.2549 21.433 53.7006 21.5444 54.1245 21.7671ZM58.6871 25.7004H57.9028L57.8446 25.217C57.3708 25.6064 56.8978 25.8012 56.4245 25.8012C56.0281 25.8012 55.7211 25.6944 55.5036 25.4799C55.2859 25.2661 55.1774 24.996 55.1774 24.6673C55.1774 24.4948 55.209 24.33 55.2724 24.1715C55.3357 24.013 55.4403 23.8593 55.5863 23.7093C55.7325 23.5591 55.9522 23.4386 56.2467 23.3465C56.5414 23.2543 56.8954 23.2088 57.3077 23.2088H57.8203V22.9838C57.8203 22.6116 57.7511 22.3582 57.6142 22.2213C57.4757 22.0851 57.2446 22.0171 56.9203 22.0171C56.5236 22.0171 56.0362 22.1802 55.4583 22.5089V21.8423C56.053 21.5702 56.6363 21.433 57.2089 21.433C57.7652 21.433 58.1501 21.5475 58.365 21.7758C58.5796 22.0031 58.6871 22.3481 58.6871 22.8081V25.7004H58.6871ZM57.829 23.7919H57.3908C56.4877 23.7919 56.0362 24.0616 56.0362 24.6008C56.0362 24.7903 56.0968 24.9264 56.2178 25.013C56.3392 25.0994 56.4901 25.142 56.6722 25.142C56.9033 25.142 57.1257 25.0864 57.3412 24.975C57.5558 24.8646 57.7186 24.7368 57.829 24.5923V23.7919H57.829ZM60.8472 21.6342H62.152L61.945 22.201H60.8472V24.4006C60.8472 24.9564 61.0837 25.2341 61.5567 25.2341C61.7386 25.2341 61.9224 25.1955 62.1105 25.1175V25.6504C61.8516 25.7507 61.5437 25.8012 61.1848 25.8012C60.7725 25.8012 60.4699 25.6828 60.2771 25.4459C60.0842 25.2108 59.9875 24.9007 59.9875 24.5164V21.0835L60.8472 20.4578V21.6342H60.8472Z" fill="white" fill-opacity="0.5"/>
</svg>
